# xmcd
#
# Track frame offsets:
#	150
#	20967
#	37577
#	58117
#	74917
#	91942
#	108729
#	122242
#	138237
#	154192
#	174517
#	190042
#	208500
#
# Disc length: 2969 seconds
#
# Revision: 1
# Processed by: cddbd v1.5.2PL0 Copyright (c) Steve Scherf et al.
# Submitted via: audiograbber 1.83.01
#
DISCID=bb0b970d
DTITLE=ALCYMAR MONTEIRO - FORRÓ E VAQUEJADA - 1
DYEAR=1900
DGENRE=
TTITLE0=VAQUEJADA
TTITLE1=ROQUEFORRÓ
TTITLE2=VIDA DE GADO
TTITLE3=CORAÇÃO VELHO DE GUERRA
TTITLE4=FESTA DE VAQUEJADA
TTITLE5=PAULEIRA NO FORRÓ
TTITLE6=O FAZENDEIRO
TTITLE7=FESTA DO BOI
TTITLE8=MÚSICA POPULAR NORDESTINA
TTITLE9=VAQUEIRO NORDESTINO
TTITLE10=AMANTE, AMADO, AMIGO
TTITLE11=MORENA LINDA
TTITLE12=PORTA ABERTA
EXTD=
EXTT0=
EXTT1=
EXTT2=
EXTT3=
EXTT4=
EXTT5=
EXTT6=
EXTT7=
EXTT8=
EXTT9=
EXTT10=
EXTT11=
EXTT12=
PLAYORDER=
